<svg width="13" height="15" viewBox="0 0 13 15" fill="none" xmlns="http://www.w3.org/2000/svg">
<path d="M6.5 1.89799C8.2355 1.89799 8.44102 1.90499 9.12662 1.93866C9.53883 1.94409 9.94713 2.0256 10.3338 2.17965C10.6141 2.29609 10.8688 2.47446 11.0813 2.70329C11.2938 2.93211 11.4594 3.20632 11.5675 3.50825C11.7106 3.9246 11.7863 4.36428 11.7913 4.80819C11.8223 5.54648 11.8291 5.76781 11.8291 7.63672C11.8291 9.50563 11.8226 9.72695 11.7913 10.4653C11.7863 10.9092 11.7106 11.3488 11.5675 11.7652C11.4594 12.0671 11.2938 12.3413 11.0813 12.5701C10.8688 12.799 10.6141 12.9774 10.3338 13.0938C9.94713 13.2478 9.53883 13.3293 9.12662 13.3348C8.44133 13.3681 8.23581 13.3754 6.5 13.3754C4.76419 13.3754 4.55867 13.3684 3.87338 13.3348C3.46117 13.3293 3.05287 13.2478 2.66624 13.0938C2.38586 12.9774 2.13123 12.799 1.91874 12.5701C1.70625 12.3413 1.54061 12.0671 1.43248 11.7652C1.28943 11.3488 1.21373 10.9092 1.20869 10.4653C1.17774 9.72695 1.17093 9.50563 1.17093 7.63672C1.17093 5.76781 1.17743 5.54648 1.20869 4.80819C1.21373 4.36428 1.28943 3.9246 1.43248 3.50825C1.54061 3.20632 1.70625 2.93211 1.91874 2.70329C2.13123 2.47446 2.38586 2.29609 2.66624 2.17965C3.05287 2.0256 3.46117 1.94409 3.87338 1.93866C4.55898 1.90533 4.7645 1.89799 6.5 1.89799ZM6.5 0.636719C4.73571 0.636719 4.51348 0.644718 3.82014 0.678717C3.28066 0.690272 2.7469 0.800271 2.24157 1.00403C1.80808 1.17991 1.41545 1.45553 1.09107 1.81166C0.760067 2.1611 0.503903 2.58416 0.340476 3.05127C0.151258 3.59544 0.0491115 4.17023 0.038381 4.75119C0.00742859 5.49715 0 5.73648 0 7.63639C0 9.53629 0.00742855 9.77562 0.039 10.5222C0.0497305 11.1032 0.151877 11.678 0.341095 12.2222C0.504341 12.6892 0.76029 13.1123 1.09107 13.4618C1.41563 13.818 1.80848 14.0936 2.24219 14.2694C2.74752 14.4732 3.28128 14.5832 3.82076 14.5947C4.5141 14.6281 4.7354 14.6367 6.50062 14.6367C8.26583 14.6367 8.48714 14.6287 9.18048 14.5947C9.71996 14.5832 10.2537 14.4732 10.759 14.2694C11.1907 14.0892 11.5827 13.814 11.9099 13.4614C12.2372 13.1087 12.4925 12.6865 12.6595 12.2215C12.8487 11.6773 12.9509 11.1025 12.9616 10.5216C12.9926 9.77562 13 9.53629 13 7.63639C13 5.73648 12.9926 5.49715 12.961 4.75052C12.9503 4.16957 12.8481 3.59478 12.6589 3.0506C12.4957 2.58355 12.2397 2.1605 11.9089 1.811C11.5844 1.45479 11.1915 1.17916 10.7578 1.00337C10.2525 0.799604 9.71872 0.689606 9.17924 0.67805C8.48652 0.644718 8.26429 0.636719 6.5 0.636719Z" fill="white"/>
<path d="M6.5 3.63672C5.80777 3.63672 5.13108 3.84199 4.55551 4.22658C3.97993 4.61116 3.53133 5.15779 3.26642 5.79733C3.00152 6.43687 2.9322 7.1406 3.06725 7.81953C3.2023 8.49847 3.53564 9.12211 4.02513 9.61159C4.51461 10.1011 5.13825 10.4344 5.81719 10.5695C6.49612 10.7045 7.19985 10.6352 7.83939 10.3703C8.47893 10.1054 9.02556 9.65679 9.41014 9.08121C9.79473 8.50564 10 7.82895 10 7.13672C10 6.20846 9.63125 5.31822 8.97487 4.66185C8.3185 4.00547 7.42826 3.63672 6.5 3.63672ZM6.5 9.4086C6.05066 9.4086 5.61142 9.27536 5.23781 9.02572C4.8642 8.77608 4.57301 8.42126 4.40105 8.00613C4.2291 7.591 4.18411 7.1342 4.27177 6.6935C4.35943 6.25279 4.57581 5.84798 4.89354 5.53025C5.21127 5.21253 5.61608 4.99615 6.05678 4.90849C6.49748 4.82083 6.95428 4.86582 7.36941 5.03777C7.78455 5.20972 8.13937 5.50092 8.389 5.87453C8.63864 6.24814 8.77188 6.68738 8.77188 7.13672C8.77188 7.73926 8.53253 8.31712 8.10647 8.74318C7.6804 9.16924 7.10254 9.4086 6.5 9.4086Z" fill="white"/>
<path d="M10 4.63672C10.5523 4.63672 11 4.189 11 3.63672C11 3.08443 10.5523 2.63672 10 2.63672C9.44772 2.63672 9 3.08443 9 3.63672C9 4.189 9.44772 4.63672 10 4.63672Z" fill="white"/>
</svg>
