<svg width="81" height="80" viewBox="0 0 81 80" fill="none" xmlns="http://www.w3.org/2000/svg">
<path d="M71.6872 27.5726L41.8643 16.8747C41.083 16.5965 40.2393 16.5997 39.4684 16.8726L9.64759 27.5726C8.24124 28.0726 7.33301 29.3538 7.33301 30.7393C7.33301 32.1247 8.24124 33.4966 9.64759 34.0007L12.333 35.0622V46.8434L9.04238 61.3018C8.92842 61.7966 9.04727 62.3142 9.36301 62.7111C9.67875 63.1081 10.159 63.333 10.6674 63.333H17.332C17.8381 63.333 18.3175 63.1019 18.633 62.708C18.9504 62.3142 19.0693 61.7966 18.9585 61.3018L15.6663 46.6247V36.2497L39.4684 44.7903C39.8542 44.9271 40.2578 44.9922 40.6632 44.9922C41.0701 44.9922 41.477 44.9238 41.8674 44.7871L71.6799 34.0892C73.0934 33.5934 73.9997 32.3122 73.9997 30.7393C73.9997 29.1663 73.0934 28.0726 71.6872 27.5726ZM12.758 59.9059L14.0174 54.4111L15.2507 59.9059H12.758ZM40.5934 41.6559L20.8226 34.5622L41.1559 28.2601C42.0349 27.9867 42.5309 27.057 42.257 26.1747C41.9852 25.2989 41.0601 24.7966 40.1726 25.0757L15.6038 32.6872L10.6663 30.833L40.7393 20.0101L70.6663 30.833L40.5934 41.6559ZM57.5726 43.3434C56.6595 43.4638 56.0163 44.3005 56.1372 45.2153L57.3205 54.2393C57.4409 55.1671 56.8355 56.0788 55.7788 56.5663C51.2049 58.682 46.033 59.8705 40.8622 59.9976H40.5101C35.2997 59.8706 30.1278 58.682 25.5518 56.5663C24.4955 56.078 23.8903 55.1663 24.0101 54.2424L25.1976 45.2184C25.318 44.3036 24.6751 43.4674 23.7622 43.3465C22.833 43.2184 22.0101 43.8747 21.8955 44.7809L20.7122 53.8111C20.398 56.2101 21.7506 58.483 24.158 59.5955C29.1455 61.8955 34.7705 63.1976 40.4684 63.333H40.8998C46.5623 63.193 52.1914 61.9007 57.1706 59.5955C59.5779 58.482 60.93 56.2101 60.6164 53.808L59.4331 44.7809C59.3226 43.8747 58.4893 43.2184 57.5726 43.3434Z" fill="#0F4975"/>
</svg>
