<svg width="44" height="45" viewBox="0 0 44 45" fill="none" xmlns="http://www.w3.org/2000/svg">
<path d="M0 22.6367C0 34.787 9.84974 44.6367 22 44.6367C34.1503 44.6367 44 34.787 44 22.6367C44 10.4865 34.1503 0.636719 22 0.636719C9.84974 0.636719 0 10.4865 0 22.6367Z" fill="#F00073"/>
<path d="M22 13.2871C25.025 13.2871 25.4375 13.2871 26.675 13.2871C27.775 13.2871 28.325 13.5621 28.7375 13.6996C29.2875 13.9746 29.7 14.1121 30.1125 14.5246C30.525 14.9371 30.8 15.3496 30.9375 15.8996C31.075 16.3121 31.2125 16.8621 31.35 17.9621C31.35 19.1996 31.35 19.4746 31.35 22.6371C31.35 25.7996 31.35 26.0746 31.35 27.3121C31.35 28.4121 31.075 28.9621 30.9375 29.3746C30.6625 29.9246 30.525 30.3371 30.1125 30.7496C29.7 31.1621 29.2875 31.4371 28.7375 31.5746C28.325 31.7121 27.775 31.8496 26.675 31.9871C25.4375 31.9871 25.1625 31.9871 22 31.9871C18.8375 31.9871 18.5625 31.9871 17.325 31.9871C16.225 31.9871 15.675 31.7121 15.2625 31.5746C14.7125 31.2996 14.3 31.1621 13.8875 30.7496C13.475 30.3371 13.2 29.9246 13.0625 29.3746C12.925 28.9621 12.7875 28.4121 12.65 27.3121C12.65 26.0746 12.65 25.7996 12.65 22.6371C12.65 19.4746 12.65 19.1996 12.65 17.9621C12.65 16.8621 12.925 16.3121 13.0625 15.8996C13.3375 15.3496 13.475 14.9371 13.8875 14.5246C14.3 14.1121 14.7125 13.8371 15.2625 13.6996C15.675 13.5621 16.225 13.4246 17.325 13.2871C18.5625 13.2871 18.975 13.2871 22 13.2871ZM22 11.2246C18.8375 11.2246 18.5625 11.2246 17.325 11.2246C16.0875 11.2246 15.2625 11.4996 14.575 11.7746C13.8875 12.0496 13.2 12.4621 12.5125 13.1496C11.825 13.8371 11.55 14.3871 11.1375 15.2121C10.8625 15.8996 10.725 16.7246 10.5875 17.9621C10.5875 19.1996 10.5875 19.6121 10.5875 22.6371C10.5875 25.7996 10.5875 26.0746 10.5875 27.3121C10.5875 28.5496 10.8625 29.3746 11.1375 30.0621C11.4125 30.7496 11.825 31.4371 12.5125 32.1246C13.2 32.8121 13.75 33.0871 14.575 33.4996C15.2625 33.7746 16.0875 33.9121 17.325 34.0496C18.5625 34.0496 18.975 34.0496 22 34.0496C25.025 34.0496 25.4375 34.0496 26.675 34.0496C27.9125 34.0496 28.7375 33.7746 29.425 33.4996C30.1125 33.2246 30.8 32.8121 31.4875 32.1246C32.175 31.4371 32.45 30.8871 32.8625 30.0621C33.1375 29.3746 33.275 28.5496 33.4125 27.3121C33.4125 26.0746 33.4125 25.6621 33.4125 22.6371C33.4125 19.6121 33.4125 19.1996 33.4125 17.9621C33.4125 16.7246 33.1375 15.8996 32.8625 15.2121C32.5875 14.5246 32.175 13.8371 31.4875 13.1496C30.8 12.4621 30.25 12.1871 29.425 11.7746C28.7375 11.4996 27.9125 11.3621 26.675 11.2246C25.4375 11.2246 25.1625 11.2246 22 11.2246Z" fill="white"/>
<path d="M22 16.7246C18.7 16.7246 16.0875 19.3371 16.0875 22.6371C16.0875 25.9371 18.7 28.5496 22 28.5496C25.3 28.5496 27.9125 25.9371 27.9125 22.6371C27.9125 19.3371 25.3 16.7246 22 16.7246ZM22 26.4871C19.9375 26.4871 18.15 24.8371 18.15 22.6371C18.15 20.5746 19.8 18.7871 22 18.7871C24.0625 18.7871 25.85 20.4371 25.85 22.6371C25.85 24.6996 24.0625 26.4871 22 26.4871Z" fill="white"/>
<path d="M28.05 17.9621C28.8094 17.9621 29.425 17.3465 29.425 16.5871C29.425 15.8277 28.8094 15.2121 28.05 15.2121C27.2906 15.2121 26.675 15.8277 26.675 16.5871C26.675 17.3465 27.2906 17.9621 28.05 17.9621Z" fill="white"/>
</svg>
