<svg width="80" height="80" viewBox="0 0 80 80" fill="none" xmlns="http://www.w3.org/2000/svg">
<path d="M32.1753 52.5654C33.2951 52.8389 33.9722 53.9717 33.6857 55.0915C33.4123 56.2113 32.2795 56.8883 31.1597 56.6019L26.993 55.5602C25.8732 55.2868 25.1961 54.154 25.4826 53.0342C25.756 51.9144 26.8888 51.2373 28.0086 51.5238L32.1753 52.5654ZM38.9722 51.9144C37.8524 51.6409 37.1753 50.5081 37.4618 49.3883L38.5034 45.2217C38.7769 44.1019 39.9097 43.4248 41.0295 43.7113C42.1493 43.9847 42.8263 45.1175 42.5399 46.2373L41.4982 50.404C41.2248 51.5238 40.092 52.2008 38.9722 51.9144ZM52.2795 29.4795C51.7716 30.5081 50.5086 30.9248 49.48 30.404C48.4513 29.8962 48.0347 28.6331 48.5555 27.6045L50.6388 23.4378C51.1466 22.4092 52.4097 21.9925 53.4383 22.5133C54.467 23.0212 54.8836 24.2842 54.3628 25.3128L52.2795 29.4795ZM73.3341 40.0003C73.3341 58.4118 58.4123 73.3337 40.0008 73.3337C21.5894 73.3337 6.66748 58.4118 6.66748 40.0003C6.66748 21.5889 21.5894 6.66699 40.0008 6.66699C58.4123 6.66699 73.3341 21.5889 73.3341 40.0003ZM51.6935 13.2686L48.7769 20.5342C48.1519 22.0967 46.8237 23.2555 45.092 23.6592L42.9826 24.2191C42.2664 24.3883 41.967 25.2477 42.4097 25.8467L44.506 28.6462C45.8341 30.417 45.8993 32.8258 44.6753 34.6618L43.2821 36.7581C41.9279 38.7764 39.6493 40.0003 37.2144 40.0003H36.9149C36.2118 40.0003 35.717 40.6774 35.9123 41.3415L36.6935 43.9326C37.6571 47.1618 35.2352 50.417 31.8628 50.417C29.6753 50.417 27.6831 49.18 26.7065 47.2269L25.4956 44.805C25.1701 44.18 24.3237 43.9196 23.8289 44.5446L21.8237 46.5368C20.5868 47.7738 18.8263 48.3076 17.1193 47.9691L11.6479 46.8753C14.7365 59.6618 26.2638 69.167 39.8836 69.167C46.1727 69.167 51.9019 67.2529 56.6154 63.9717L55.5086 63.0602L54.1284 63.6852C50.5347 65.0264 46.394 63.3467 44.9357 59.8311L44.2196 58.1123C42.6701 54.779 44.0112 50.7165 47.3185 48.8805L52.0321 46.1331L52.8263 45.0133C53.9852 43.1904 56.0034 42.0837 58.1649 42.0837C60.3263 42.0837 62.3446 43.1904 63.5164 45.0133L63.7638 45.3909L65.7951 44.818C66.7716 44.5446 67.8003 44.5706 68.7638 44.8701C69.0243 43.2816 69.1675 41.654 69.1675 40.0003C69.1675 28.0472 61.98 17.7751 51.6935 13.2699V13.2686ZM66.9149 48.8415L64.8576 49.4144C63.0998 49.8962 61.2378 49.193 60.2612 47.6566L60.0008 47.2529C59.5972 46.6279 58.9071 46.2503 58.1649 46.2503C57.4227 46.2503 56.7326 46.6279 56.3289 47.2529L55.5347 48.4899C55.1701 49.0758 54.6623 49.5576 53.9461 49.8831L49.3498 52.5133C47.9305 53.3076 47.3576 55.0394 48.0216 56.5238L48.7378 58.1383C49.4149 59.6357 51.1336 60.3519 52.6831 59.779L55.105 58.8805C55.756 58.6331 56.4982 58.7373 56.9409 59.1409L59.9748 61.2633C63.5164 57.917 66.2378 53.7113 67.7612 48.9587L67.6571 48.9066C67.4227 48.7894 67.1623 48.7633 66.9149 48.8415ZM47.7612 11.8766C45.2873 11.1969 42.6831 10.8337 40.0008 10.8337C23.894 10.8337 10.8341 23.8936 10.8341 40.0003C10.8341 40.8337 10.8693 41.667 10.9383 42.4743L17.9357 43.8805C18.2782 43.9456 18.631 43.8415 18.8771 43.5941L20.8732 41.5889C23.3862 39.0758 27.5138 39.7659 29.2196 42.943L30.4305 45.3649C30.7039 45.9118 31.2508 46.2503 31.8628 46.2503C32.3315 46.2503 32.8654 45.6904 32.6961 45.1305L31.9149 42.5394C30.9123 39.193 33.4253 35.8337 36.9149 35.8337H37.2144C38.256 35.8337 39.2326 35.1956 39.8185 34.4404L41.2118 32.3571C41.4461 31.9795 41.4331 31.4977 41.1727 31.1462L39.0763 28.3467C36.8368 25.3649 38.3602 21.068 41.98 20.1696L44.1935 19.6162C44.519 19.5355 44.7795 19.3037 44.9097 18.9925L47.7612 11.8766Z" fill="#0F4975"/>
</svg>
