<svg width="44" height="45" viewBox="0 0 44 45" fill="none" xmlns="http://www.w3.org/2000/svg">
<path d="M0 22.6367C0 34.787 9.84974 44.6367 22 44.6367C34.1503 44.6367 44 34.787 44 22.6367C44 10.4865 34.1503 0.636719 22 0.636719C9.84974 0.636719 0 10.4865 0 22.6367Z" fill="#1877F2"/>
<path d="M33 22.6367C33 16.5867 28.05 11.6367 22 11.6367C15.95 11.6367 11 16.5867 11 22.6367C11 28.1367 14.9875 32.6742 20.2125 33.4992V25.7992H17.4625V22.6367H20.2125V20.1617C20.2125 17.4117 21.8625 15.8992 24.3375 15.8992C25.575 15.8992 26.8125 16.1742 26.8125 16.1742V18.9242H25.4375C24.0625 18.9242 23.65 19.7492 23.65 20.5742V22.6367H26.675L26.125 25.7992H23.5125V33.6367C29.0125 32.8117 33 28.1367 33 22.6367Z" fill="white"/>
</svg>
