<svg width="44" height="45" viewBox="0 0 44 45" fill="none" xmlns="http://www.w3.org/2000/svg">
<path d="M0 22.6367C0 34.787 9.84974 44.6367 22 44.6367C34.1503 44.6367 44 34.787 44 22.6367C44 10.4865 34.1503 0.636719 22 0.636719C9.84974 0.636719 0 10.4865 0 22.6367Z" fill="#FF0000"/>
<path d="M32.45 17.274C32.175 16.3115 31.4875 15.624 30.525 15.349C28.875 14.9365 21.8625 14.9365 21.8625 14.9365C21.8625 14.9365 14.9875 14.9365 13.2 15.349C12.2375 15.624 11.55 16.3115 11.275 17.274C11 19.0615 11 22.6365 11 22.6365C11 22.6365 11 26.2115 11.4125 27.999C11.6875 28.9615 12.375 29.649 13.3375 29.924C14.9875 30.3365 22 30.3365 22 30.3365C22 30.3365 28.875 30.3365 30.6625 29.924C31.625 29.649 32.3125 28.9615 32.5875 27.999C33 26.2115 33 22.6365 33 22.6365C33 22.6365 33 19.0615 32.45 17.274ZM19.8 25.9365V19.3365L25.575 22.6365L19.8 25.9365Z" fill="white"/>
</svg>
